<svg xmlns="http://www.w3.org/2000/svg" viewBox="0 0 16 16" fill="none" shape-rendering="crispEdges" aria-hidden="true" width="256" height="256"><defs><g id="clothes-variant15-16872cc7"><path d="M4 2H2v1H1v1h4V3H4zm6 1h1v1H7V3h1V2h2z" fill="#03396c"/></g><g id="eyes-variant10-16872cc7"><path fill="white" d="M0 0h3v3H0zm5 0h3v3H5z"/><path fill="#76778b" d="M6 0h2v2H6zM1 0h2v2H1z"/><path fill="white" fill-opacity=".4" d="M1 0h1v1H1zm1 1h1v1H2zm4-1h1v1H6zm1 1h1v1H7z"/><path fill="white" fill-opacity=".7" d="M7 0h1v1H7zM2 0h1v1H2z"/></g><g id="mouth-happy01-16872cc7"><path d="M1 0v2h2V0z" fill="#c98276"/></g><g id="hair-short05-16872cc7"><path transform="matrix(-1 0 0 1 9 1)" fill="#611c17" d="M0 0h1v3H0z"/><path transform="matrix(-1 0 0 1 8 2)" fill="#611c17" d="M0 0h1v2H0z"/><path transform="matrix(-1 0 0 1 10 0)" fill="#611c17" d="M0 0h1v3H0z"/><path transform="matrix(-1 0 0 1 11 1)" fill="#611c17" d="M0 0h1v1H0z"/></g><g id="hat-variant03-16872cc7"><path d="M3 0h8v1h1v1h1v2H1V2h1V1h1z" fill="#989789"/><path fill="white" fill-opacity=".3" d="M12 1v1H2V1zm1 2v1H1V3z"/></g><clipPath id="clip-16872cc7"><rect width="16" height="16" rx="0" ry="0"/></clipPath></defs><g clip-path="url(#clip-16872cc7)"><rect width="16" height="16" fill="#c9b6e4"/><path d="M4 2h8v1h1v3h1v2h-1v3h-1v1H9v1h4v1h1v2H2v-2h1v-1h4v-1H4v-1H3V8H2V6h1V3h1z" fill="#eac393"/><path d="M4 2h8v1h1v3h1v2h-1v3h-1v1H4v-1H3V8H2V6h1V3h1z" fill="white" fill-opacity=".1"/><use transform="translate(2 12)" href="#clothes-variant15-16872cc7"/><use transform="translate(4 5)" href="#eyes-variant10-16872cc7"/><use transform="translate(6 9)" href="#mouth-happy01-16872cc7"/><use href="#hair-short05-16872cc7"/><use transform="translate(1)" href="#hat-variant03-16872cc7"/></g></svg>