<svg xmlns="http://www.w3.org/2000/svg" viewBox="0 0 16 16" fill="none" shape-rendering="crispEdges" aria-hidden="true" width="256" height="256"><defs><g id="clothes-variant14-188bad1b"><path d="M3 1H1v1H0v2h12V2h-1V1H9v1H8v1H4V2H3z" fill="#5bc0de"/></g><g id="eyes-variant10-188bad1b"><path fill="white" d="M0 0h3v3H0zm5 0h3v3H5z"/><path fill="#697b94" d="M6 0h2v2H6zM1 0h2v2H1z"/><path fill="white" fill-opacity=".4" d="M1 0h1v1H1zm1 1h1v1H2zm4-1h1v1H6zm1 1h1v1H7z"/><path fill="white" fill-opacity=".7" d="M7 0h1v1H7zM2 0h1v1H2z"/></g><g id="mouth-happy01-188bad1b"><path d="M1 0v2h2V0z" fill="#d29985"/></g><g id="hair-long06-188bad1b"><path d="M3 2h10v1h1v3h-1V4H3v2H2V3h1zm10 6h1v1h1v2h-1v-1h-1zm2 3h1v1h-1z" fill="#a78961"/></g><clipPath id="clip-188bad1b"><rect width="16" height="16" rx="0" ry="0"/></clipPath></defs><g clip-path="url(#clip-188bad1b)"><rect width="16" height="16" fill="#b9dfc5"/><path d="M4 2h8v1h1v3h1v2h-1v3h-1v1H9v1h4v1h1v2H2v-2h1v-1h4v-1H4v-1H3V8H2V6h1V3h1z" fill="#ffdbac"/><path d="M4 2h8v1h1v3h1v2h-1v3h-1v1H4v-1H3V8H2V6h1V3h1z" fill="white" fill-opacity=".1"/><use transform="translate(2 12)" href="#clothes-variant14-188bad1b"/><use transform="translate(4 5)" href="#eyes-variant10-188bad1b"/><use transform="translate(6 9)" href="#mouth-happy01-188bad1b"/><use href="#hair-long06-188bad1b"/></g></svg>