<svg xmlns="http://www.w3.org/2000/svg" viewBox="0 0 1744 1744" fill="none" shape-rendering="auto" aria-hidden="true" width="256" height="256"><defs><g id="head-variant01-ccf5ba29"><path d="M553 723.7c-99 297-363.7 388.6-503.6 19.8-19.3-50.7 31-69.5 66.2-91.9 24.1-15.3 36.8-28.5 35.3-42.2C144 545 114 365.6 114 365.6l-3-5.8s.7-1.6-2.2 1.2c-3 3-9.9 34.2-37 34.2-24.5 0-49.2-10.9-61-86.3C6.3 281.6 8.7 210 39 197c12.5-5.3 24-7.2 35.2-.8s-13-22 112-126C267.5 2.4 395.8-7.5 447.6 4S551 40.8 574 94.5c27.8 65-25.9 114.3-14 262.5-2.2 53.6.8 171.2-146.6 210.6-28 7.5-19.3 48.4 22.7 58.4 67 21 117 72.3 117 97.9" fill="#ffffff"/><path d="M7.6 228.9c5.2-16.1 23.7-44.7 42.2-42C71.7 185 83.8 198 94 213a140 140 0 0 1 22.4 61.5c.5 3.7 1 7.6-1.2 11.3-4.5.6-4.9-3-5-5.6-.5-20.7-9.7-38.7-18.9-56.1-6.6-12.5-16.2-24.6-31.4-27.6-17.2-3.5-33 12-40.8 32.2-14.5 37.6-12 74.6 1.4 111 5.8 15.9 13.1 32.1 27.8 43.2 14.8 11.3 32.7 9.3 43.6-5.7 2.5-3.4 5.6-6.7 7-10.6 2.1-5.7 5.4-11 11.3-10.3 6.8 1 8 8.3 8.7 14C126.2 436 137 501 147 566c2.6 17.1 5.6 41.7 3.6 52.1-.7 3.7 0 7-4.5 7.8-4.9.7-7-2.1-7.7-6.5-2.3-17-3-23.6-4-49.6-1.2-34.3-9.6-68-15.3-102a604 604 0 0 1-10.9-97c-8.5 12.7-14.8 23.3-26.5 27.2a40.5 40.5 0 0 1-46.1-12.6 128 128 0 0 1-28.8-55.8c-8.4-34-9.9-67.1.9-100.6m572.7-71.5c6.5 4.4 5.7 10 3.7 15.2-21.6 55.7-17.6 113.8-15.8 171.6 2.1 66.4-14.5 126.8-58.7 177.5-15.4 17.6-35.8 29.8-56.5 40.3-21.4 11-25.9 20.1-19.2 43.6 1.3 4.7 4.4 9.6-.2 14.4s-9.8 3.1-15.4 1.7a406 406 0 0 1-137-68.3c-6-4.5-11-10.6-15.8-16.5-2.5-3-3-7.8.5-10.4 3.7-2.9 6.4.1 9.8 2.7A146 146 0 0 0 352 561c21 2.1 41.5-.2 62.3-.1 11.5 0 20.6-5.9 29.5-10.8 27.8-15.5 54.3-32.8 72.2-60.7a230 230 0 0 0 31.6-80.9c9.6-48 5.3-96.6 5.5-146.2 4.2-36.9 8.1-72.7 27.3-104.8M60.6 238.6c21 1 34.7 28 35.8 70.3-6 18.8-12.8-1-21 2.7-4 14.5 15.1 20 16.3 34-14-.6-21.1-9.3-25.9-19.8-5.5-12.2-1-22.2 9.7-29.9-6.7-13.4-21.7-18-30-30.5 10-3.5 15.1 2.9 21 6.8 5.9 4 9 11.3 17 15-.8-19.8-11.7-34-23-48.6" fill="#000000"/></g><g id="clothes-variant24-ccf5ba29"><path d="M1340.4 725.7 36.7 722.4s33.4-209.7 96.2-329c17-32.3 81-128.7 141.8-189.6 40.8-41 87.7-56 89-62 2.2-9.7-11-41.4-8.8-48.5 8.1-25.5 9.5.8 42.1-31.8 18.3-18.2 1.4-29.6 21.6-43.2 29.8-20 60-8.7 87-7.6 18 .7 12.4 50.3 27.3 62.5 40.3 32.9 91.8 54 128 63.6 46.1 12 61.6-2.6 85.4-12.3 23.8-9.6 38.5 12.2 68.9-33.2 14.2-21.2-11-42.6 8.2-54 30.2-17.9 75.8-17.3 94.7-7.7 28.9 14.8 16.3 41.6 16.3 41.6s35.7 11.6 43 22c7.2 10 5 44 5 44s-2.8-13.7 63.4 23.5c84.2 47.4 179.2 187.2 223 296 46.6 115.8 71.6 269 71.6 269" fill="#ffffff"/><path d="M737.4 725.7a42 42 0 0 1-3.3-13.8c0-9.2-3.2-14.3-13.5-13.7-6.4.4-13-3.3-13-9.6-.2-8.2 7.8-6.1 12.7-5.7 9.3.7 12.2-4.1 12.4-12.1 0-4.6-.8-11 5.6-10.8 5.4 0 11.2 4 11.4 10 .4 9.8 4.5 14 14.1 13.6 8.7-.3 8.8 6 8.9 12.2-2.3 3.5-5.8 3.8-9.1 3.8-9 0-13.8 4-12.9 13 .7 6.5-3.7 9-8.5 12.5q-2.4.8-4.8.6m-238 0q-2-6.8-1.9-14c.8-10-3.1-14.6-13.3-13-4.7.7-8.2-1.6-11.2-4.9-1.8-1.9-3.6-3.8-2.6-6.7 1-2.7 3.5-3.8 6.2-3.5 13.3 1.7 21.4-1.9 19.7-17.4-.3-3.3 2-7 6.4-6 5.1 1 9.3 4.3 9 9.4-.6 11.3 4 15.2 15 14.2 9.7-.9 8.8 6.6 9.4 13.4-3 1-5.4 2.4-7.7 2.3-10.9-.6-16 3.7-14 15 .9 5.3-3.7 7.2-7.7 10.5q-3.6.9-7.3.7m476 0c-1.8-3.2-3.7-6.5-3.7-9.7 0-11.6-1.8-20.2-17-17.6a9.5 9.5 0 0 1-10.6-9c0-6.9 6.4-5.8 10.8-5.6 10.1.6 15.3-3.2 14.6-14-.3-3.6 1.2-7.2 4-9.6 7.6 2 14.2 4.8 14.5 14.3q0 9.6 9.5 9.2c9-.6 12.4 3.8 11.4 12.3-2.5 3.2-6.2 2.5-9.5 2.9-7.3.8-12.3 3.5-11.1 12 1 6.4-2 10.4-8 14a11 11 0 0 1-4.9.8m-711.5 0a28 28 0 0 1-3.3-11.2c-.2-11-3-17.7-16.3-16.2-5.2.6-11.6-3.5-11.3-9.8.3-6.5 7-4.6 11.3-4.8 12.7-.6 12.7-.5 16.3-21.8 7.7-2.3 12.6 1.2 13.1 8.7.7 10 5.4 13.7 14.7 13 6.7-.6 10.8 1.9 11 9 .2 8.2-6.5 7.3-11 6.7-10.5-1.5-12.5 3.9-11.8 12.5.4 4.9-.1 9.4-5.4 13.1q-3.6 1-7.3.8m949.4 0c-1.7-2.8-3.7-5.6-3.5-8.3.6-13-2.4-21.2-18-19.8-4.4.5-10.8-3.4-10.4-9.3.5-6.9 7.2-4.8 11.3-4.4 11 1.2 16-2.7 14.8-14a9 9 0 0 1 4.5-9.3c6 1.5 12 3.9 11.6 12-.3 8 3 11.8 11.3 11.3 3.8-.2 7.9.4 8 5.8.2 5.7-2.7 8.9-8.5 8.6-8.5-.4-11.4 4.1-10.7 11.8.5 6.3-3.2 10.3-8 14.9-.5.7-1.8.7-2.4.7M638.4 568.5c3.4.4 6.7-.1 8.2 1.3 3.4 3.3 11.5 2.6 10.3 9.4-1 6.3-7.7 6.2-12.6 6-15-.5-14.2 11-15.4 21.5-8.3-.8-15.2-2-15.9-11.5-.6-7.4-5.5-9.2-11.4-9.2-7.5-.1-10.7-4-11-11-.2-7.6 5.5-7.7 10.5-7.9 7.8-.3 10.6-4.3 9.5-11.6-1.3-9.4 5-12.5 12-12.6 8-.1 6.6 7.2 7.2 12.4.6 5.5-1.7 12.7 8.6 13.2m210.2-19.3c3.9-4.9 9-5 13.3-6.4 1.2.9 2.3 1.2 2.5 1.9a55 55 0 0 0 22.3 26.3c3 1.8 7.4 2.7 8 7.8-2.7 7-9.3 6-15 6.3-7.5.4-12.3 2.3-10.8 11.4.7 4 .7 10-5 9.9-5.5 0-12.7-1.6-12.8-9.3-.2-9-4.2-11.7-12.6-11.6-10.7.2-9.9-8-10.7-16.4 11.6-1.5 24.7-1.8 20.8-19.9m237.6 11.5c.1-3.5.3-6 .2-8.6-.5-7.4 5.7-8 10.2-8.9 6-1.1 6.5 4.2 6.7 8.5.5 10 1.3 18.6 15.6 17 5.2-.7 12.4 4 12.5 10s-7.1 6.1-12 6.3c-8.6.2-13.8 3.2-13.7 12.7.1 4.2-.6 9.7-6.2 9.2-5.3-.5-11.9-2.6-12.2-9.2-.4-9.4-4.8-12-13.5-12.6-8.2-.5-8.2-8-9.1-13.4 5.8-8 18.8 2.9 21.5-11m34.8-332.4c-2.4 2-4.8 1.9-7.2 1.6q-10-1.1-8.3 8.4 1.4 6.9-5.6 7.8c-5.5 1-5.8-3.2-5.8-6.5.1-6.9-1.6-11-10-9.9-4 .6-8.4-1.9-9-5.6-.7-5 4.4-5.1 8.1-5.8 5-.8 9.2-2.1 9.4-8.2 0-2.8.9-6.5 4.8-6 3.6.6 7.9 1.9 7.7 6.8-.2 5.7 2.3 7.4 8 7.1 6.8-.4 8.2 4.4 8 10.3m-140.6 20.4c-10.6 2.8-8.7-5.2-9.4-9.8-1.3-8.9-3.3-15.4-14.7-14.5-5.4.4-12-3-12.6-8.6-.7-7.7 7-7 12.2-7.7 7.6-1 12.8-4 13.4-12.5.2-4.2.8-10 6.4-9.1 5.1.7 12 2.5 12 9.5-.1 9 3.6 11.5 12.2 11.6 9.1.1 9.5 7.7 9.9 15.3-2.3.7-4.3 1.9-6.2 1.8-10.8-.7-17.6 2.2-15.5 14.9q1.3 7.5-7.7 9.1m330.4 333.4c3 6.4-.5 9.7-5 9.6-15.5-.5-25.6 3.9-20.6 22.4q-15.5.5-16.7-10.9c-.8-8.3-4.9-11.3-12.1-11.5-10-.3-10.6-6.3-9.5-13.7 2.8-2.8 6.3-3 9.7-3.1 7.2-.2 10-4.2 9-10.8-1.5-10.4 6.1-13.2 13-13.1 7.8 0 6.1 8 6 13-.2 8.3 2 13.4 11.5 12.3 5.5-.6 9.8 2 14.6 5.8M408 568.5q4.4 2 8.3 4.8c6.4 5 4 8.5-2 11q-3.7 1.3-7.6 1c-11.6-1-16.8 3.7-14.6 15.6.3 1.5-.5 3.2-.8 5.4-8.7.3-14.3-2.7-15.4-11.5-.8-7-5-9.4-11.4-9-7.8.4-10.4-3.9-10.7-11-.4-8 5.3-7.7 10.3-7.7 8.5 0 11.6-4 10.5-12-1-8.3 3.8-12 11-12.4 8.2-.4 6.4 6.9 6 11.3-1.2 12.1 3.8 16.6 16.3 14.5M117.2 437c-2.4-13 7.3-11.8 12.9-14.2 3.4 1.1 4.1 3.3 4.3 5.4 1.2 12.4 3.2 23.4 20.3 21.2 3.5-.5 8.6 3 8.2 8.2-.5 5.3-5.3 6.7-9.5 6.6-11.3-.3-18.1 3.3-17 16 .3 3.2-1.4 6.3-5.1 6-5.6-.3-11-3.7-11.1-8.7-.5-11-6.8-13.5-15.7-14.3-5.6-.5-6.4-4.8-6.7-9.2-.5-5.4 3.5-6.2 7.4-6.7 6-.7 12.5-.4 12-10.4m460.2-115.2c-.5-10.2 7-11.6 13-11.5 7 0 6 7.2 5.9 12-.4 8.7 1.9 14.1 12 13.1 4-.4 7.2 2.2 10.6 3.9 2.8 1.3 5.4 3 5 6.6a6 6 0 0 1-6.4 5.3c-15.3-.7-25.5 3.8-20.8 22.2-9.4 0-15.4-2.7-16.5-9.7-1.4-8.6-5.7-12-13.6-12-6.8 0-9-4-9.2-9.7-.1-6.5 4.6-7.7 9.6-7.4 8.8.6 13.2-2.3 10.4-12.8m495 9.3c9.9.7 15.2-2.4 14-12.2-1-7.6 3.7-11.6 10-12.1 8.4-.7 6.8 6.8 7 11.9.2 8.8 3.5 13.9 13 12.7 4.3-.5 7.2 1.7 10.3 4 2.3 1.9 5.4 3.2 4.7 6.9-.9 4-4.4 5.4-7.8 5.2-12-1-20 2-18.4 16.4.3 3-1.8 6.3-5.3 5.9-5.6-.7-11.9-3-12.3-9-.8-9.9-5.4-13.4-14.6-13.3-5.5.1-6.4-4.6-7.5-8.8-1.3-5.1 1.5-6.9 7-7.7M119 583c-5.2-10.6-1.7-15.5 8.7-15.5 9 0 12.1-3.5 9.6-12.7S143 544 148.8 543c6.7-1.2 7.2 5.2 7 9.6-.5 10.6 2 17.1 14.6 16.7 4.4-.2 10.6 3 10.7 9 .1 7.4-6.7 6.3-11.5 7-10.7 1.3-10.8 1.2-14.5 20.8-6.3 2.2-13.7-1.6-13.7-5.4-.2-15.7-11.9-14.7-22.3-17.8M899.2 301c3.8-4.7 8.5-5.1 14-6.2q1 1.3 1.8 2.9c6.2 16.7 6.3 16.5 21.2 24.5 3.4 1.8 9.2 3 8 8.5-1.1 6-6.7 5.7-11.4 5.6-8.2-.1-15.9-.2-14.6 11.7.4 4 1.3 9.8-4.6 10.2-5 .3-11.4-2.4-11.9-7.7-1-11.2-7.3-14-17-14.5-5.5-.2-6-5.3-6.5-9.6-.5-5 3-7.2 7.2-6.7 15.3 2 13.7-8.3 13.8-18.7M966 443.2c5.5-6.1.5-15.5 8.9-20.4 6.3 3 14 4.9 13.4 15-.4 7.2 4.9 8.3 10.4 8 7.1-.5 10.3 3.6 10.8 9.8.6 8-6 6.9-10.7 6.9-7.5 0-11.5 3.1-10.4 10.7 1.4 10.2-5.3 11.9-12.3 13.5a10 10 0 0 1-4.5-8c-1-10.5-3-19.1-17.3-17.6-4.3.4-10.4-3.8-10-9.6.3-6.2 6.4-5.2 11-5.8a64 64 0 0 0 10.6-2.5M442.2 243.8c-6.9-.8-12.4-4-12.3-9.8.1-7.3 7.5-6.7 12.7-7.5 6.8-1 12.5-2.6 12.3-11.4-.1-4 .2-9.4 6.1-9.2 5.2.2 10.6 2.3 10.2 9-.4 8.7 4.4 11.2 11.7 11 10.4 0 12.7 6.4 12.7 15-6.3 6.5-15.3-.2-21.6 4.5-2.6 4.3-.3 8.5 0 12.6.5 7-4.2 8.7-9.4 9.7-7 1.3-7.7-4.1-7.6-8.8.2-9.7-1.3-17.3-14.8-15.1m295 179.4c8.1 2.3 13.8 5.7 13.2 15-.4 7.3 5.4 7.8 10.8 7.5 7.4-.4 11.6 3.3 11.7 10.3.2 8-6.6 6.5-11.3 6.5-8 0-12.2 3-11.2 11.4 1.3 9.4-4.5 11.6-11.6 12.3a7 7 0 0 1-4-6.6c-.5-10.9-2.8-19.1-16.9-18.2-4.5.3-10.6-3.8-10.6-9.3 0-7.1 6.7-6.6 11.7-6.3q14.7 1 13.6-13.6c-.3-3.4.2-6.9 4.6-9M518 463.4q-4.7 3.2-3.6 7.1c2.2 10.3-2.6 15-12.2 16.3-.8-.4-2-.6-2.2-1.2a66 66 0 0 0-23-25.6c-3-2-7.1-3.8-6.7-8.5a5.6 5.6 0 0 1 6.1-5.3c15 2 20.7-5.3 20.9-19.1 0-1 1.4-2 2.3-3.2 7.2.6 12.4 3.3 12.3 11.4-.1 7.2 4 10.2 10.3 10.1 8-.1 14.1 2.6 13.5 11.1-.7 9-9.1 4.9-14.3 6.2-.8.3-1.6.3-3.4.7m-223.7-1.3c-11.7-.4-19.5 1.5-17.8 15.3 1.1 8.4-5.7 9-11.6 9.7-4.1-3.2-4.1-7.8-4.4-11.9-.6-9.2-4-14-14.3-13.4-6 .2-12.5-3.7-12.6-10.1 0-7 7.2-6 12-6 7.8 0 12-2.8 12.5-11 .2-4.4-.3-10.8 6.4-10.5 5.2.2 9.7 4 9.4 10.1-.5 10.3 5.4 12.1 13.9 11.5 4.4-.3 8.6.4 10.3 5.5 1.4 4.2 3 8.4-3.8 10.8m79.4-110.8c-3.7-3.5-7.7-3.6-11.5-3.6-7.1 0-8-5-8.3-10.4-.4-6.3 4.1-6.9 8.5-6.7 9 .5 13.8-2.6 12.3-12.5-1.2-8 4.8-11 10.6-11.5 8.2-1 6.6 6.5 6.3 11-.7 11 1.6 17.1 14.9 14.5 5.9-1.2 12.6 3.1 12.8 9.6.3 7.2-7 5.7-11.8 6-12.2.6-12.2.5-17.4 22-11.4-.3-14.3-8.4-16.4-18.4m863.9 111.2c-8.9-.4-14.6 1.6-13.8 11.2.5 7.3-4.2 10.5-10.3 12.8-1-.7-2.8-1.4-2.8-2.2-1.1-13.5-4.2-24.6-21.6-24.2-3.2 0-9.5-3.8-7.9-9.8 1.4-5 6.7-4.9 10.8-4.5 9.8.7 15.8-1.9 14.7-13.2-.4-3.9.3-8.7 5.2-8.6 5.2 0 11.2 2.8 11.3 8.2 0 11 5.1 14.3 15 13.7 6.3-.4 7.5 4.4 8.3 9.2 1 6.2-3.5 6.8-9 7.4M297 212.9c3.7 8.8.7 12.5-7.4 11.9-9.8-.7-14.2 3.3-13 13.3 1.1 9.4-5.1 11.2-14 12-1.5-13.8-10.7-28.7 2.6-40 8.8-7.6 21.2-3.7 31.9 2.8M42.8 690c2.6-7.6 8.2-6.6 12.8-5.5 5.9 1.4 5.2 6.7 4.7 12-7 1.7-14.4 6-17.5-6.5m138.4-348.3c-3.2 8-8.5 5.7-13.5 5-2-5.7.4-8.8 4.7-10.2 3.8-1.3 7.4-.5 8.8 5.2" fill="#000000"/><path d="M1334 725.7c-9.4-38.5-16.9-77.2-25.6-115.7q-9.6-41.6-22.4-82.1a737 737 0 0 0-33-90.5q-14.4-31-29.5-61.5a673 673 0 0 0-57.7-92.4 470 470 0 0 0-60.5-70 343 343 0 0 0-83-57.4c-3-1.5-6.6-2.3-9.2-4.3-17-12.7-33.7-6.3-44.8 12.9-30.8 53.2-78.6 77.6-137.2 85.4a19 19 0 0 1-6.4 0c-5.6-1.2-13.6-1.2-13-9.1.7-6.9 8-4.5 12.7-5.1 43.7-5.8 84-19.6 113.4-54.3 12.4-14.8 21.6-32.4 31.3-49.3a34.3 34.3 0 0 0-23.7-50.5c-11.8-2.5-19.5-6.3-16.2-21.4 2-9.6-4.8-18.9-13.2-23-10.4-5-21.7-9.1-34.5-5.6-11.7 3.3-24.2 4.1-36.3 6-7.1 1-12.2 5.8-18 9.4-4.4 2.8-4.4 6.4-2.5 11 7 17.4 1 39.8-13.9 51-14.7 11.2-30.4 20.2-50 18.4q-7.1-.6-12.8 4.4c-14 11.8-30.4 14.5-48.7 14.3-38.8-.4-74.2-12.6-109.2-27.3-7.8-3.3-13.6-12.5-26.5-7.5 27 34.9 67 48.4 105.6 67.6a26 26 0 0 1-24.8 3c-51.4-17.5-91.9-47.6-117.2-97-8.4-16.5-14.9-33-18.1-51-2.3-12.6-5.7-13.8-17.6-8.4-13.2 6-24.9 14.3-35.7 23.6-12.5 10.8-20 24-18.1 41.5 1 8.4 0 17 .2 25.6a47 47 0 0 0 35.2 46 37 37 0 0 1 18.4 10.8c-14.6 6.6-40.5-1.2-53-15.9-33.7-39.8-20.4-108.6 25.8-132.8l5-2.8a40 40 0 0 0-54 19 81 81 0 0 1-39.3 43c-15.3 7.7-19.8 28.7-7.8 39.4 23.4 20.8 43 45.8 69.9 62.6 15.4 9.6 30.1 21 46.7 28 15.8 6.5 33.6 8.4 50.6 11.8 5 1 10.2.8 13.3 5.6.3 3.4-1.7 5.6-4.4 5.5-32.1-1.5-63.4-4.4-92-23a438 438 0 0 1-69-54.1c-11-11-23.1-6.1-34 0-39 22-72.5 50.9-102.9 83.7a615 615 0 0 0-87.4 123 871 871 0 0 0-50.5 108A1198 1198 0 0 0 74 576.3a558 558 0 0 0-20.6 102.1c-1.3 15.2-7.3 29.7-7.9 46.2-5.5 1-10.8 1-17.1 1q6.8-49.5 16.2-98.8c3.7-19.1 9.2-37.9 13.7-56.8 5.6-23.6 13.4-46.5 21.2-69.4a832 832 0 0 1 84-179q25.4-40.5 57-76c36.7-41.1 76.3-78 126-103 6.4-3.3 9.3-7 4.1-15.1-9.3-14.7-5.9-45.7 15.3-55.4 16.6-7.6 26.6-22 34.3-37.8A56 56 0 0 1 451.7 1l58.8-1c9 0 14.1 1.6 10.1 12.7-2.5 7-1.7 14.5 5.4 19.5a9 9 0 0 1 4 6.1c4.4 31 27.1 45.6 52.1 57.7 19.8 9.6 39.6 20.3 60.5 26.3 21.8 6.3 44.5 12.1 67.7 10.5a46 46 0 0 0 26.9-10.8c6.3-5.4 14.2-4.9 21.6-6.4 17-3.4 32.5-9.8 45-22 11.2-11.2 12-22 3.3-35.3-7.7-12-3.3-34 8.5-40.9 3.5-2 8.7-2.8 9.8 1.6 3 11.4 9.8 6.6 15.9 4.8a159 159 0 0 1 55.3-8.2A58 58 0 0 1 933 31.2c7.8 6.9 9.7 15.6 9.8 25.3 0 7.6 2.4 11.9 11 13.9C978.6 76 987.7 88 988 113.5c0 5.3 1.4 8.3 6.3 11 34.6 18.7 70.4 35.4 101.6 60 29.3 23 53 51.1 75.5 80.4A719 719 0 0 1 1272 441.8q27.3 69.8 46.4 142.4c12 46 16 93.5 27.1 140.6-3.2.9-6.7.9-11.4.9" fill="#000000"/><path d="M1149.7 725.7c-9.3-36.4-12.3-73.8-22.2-110-7.8-28.4-14-57.4-24.2-85-7.2-19.4-14-39-23.5-57.7-12.7-25-23.3-51.2-34.7-77-1.4-3-2.8-6.3 1.4-8.8 4.4-2.7 7.6-.6 9.9 2.7 5 7.3 10.2 14.6 14.3 22.5 16 31.2 31.8 62.7 42.9 96 7.5 22.8 15.6 45.5 21.2 69 3.9 16.5 8.2 33 12 49.4q10.6 48.4 14.5 97.9c-3.4 1-7 1-11.6 1m-903.7 0a451 451 0 0 1 4.4-86.5c3.7-29 4.4-58.3 11-87 3.9-17 9-33.6 13-50.4a338 338 0 0 1 34.6-92.4l7.4-12c2.3-3.3 4.1-8.7 9.5-6.2 5.7 2.8 3.2 8.2 1.8 12.4a320 320 0 0 1-10 26.1c-18 40-33 81.2-40.6 124-7.3 42-15.8 84.3-14 127.6.7 14-1.6 28-2.6 43.2-4.5 1.2-9 1.2-14.4 1.2m410.2-330.2c-1.5-9.8 2.8-16.7 6.6-23.8 11.4-21.4 8.4-30-11.6-42.7-17.7-11.3-35.3-23-44.2-44-5.8-14-4.4-28.3-6.2-42.4-1-7.2 2.4-16 12.3-16.7 9.4-.6 20.9-3.5 25.6 8.4 3.4 8.6 2.1 17-6.2 24-15 12.8-13.9 19.7 3.7 29.1 13.8 7.4 28.5 13.3 40.5 23.9 23.8 21 26 56 4.5 79.2-6.8 7.3-7.8 15.3-6 24.6.9 4.3 2.7 10.2-3.1 12.3-5.3 2-6.5-4-9.2-7-6.3-6.8-7.1-15-6.7-24.9m175 37.7c1.2 3.4 4.6 5.2 3 8.6-20.6.3-34.9-24.4-26-44 5-11.2 13.4-20.6 15.8-33.3 3-16.5 0-25.2-15-32.3-27-12.9-39.8-33-35.3-63.4 1.4-9.4 1.4-17.6-11.8-20.7-9-2.2-11.2-12.2-9.2-21 2-8.5 8.8-13.9 17-12.5 7.6 1.2 17.4 3.4 16.7 15.3-.2 3-.4 6.1 2 8.4 11 11 8.6 24.1 6 37.1-2.2 11.1 0 20.3 9.8 26.8 6.4 4.2 12.5 8.9 19.2 12.6a49 49 0 0 1 13 78.4c-14.3 16-15.7 25.7-5.2 40M878 119.7c16.8-7 17.8-16.8 17.5-33.6 0-5-2.4-10 .8-14.8 11.1 2.3 17.6 16.3 14 29.9a48 48 0 0 1-48.7 35.4 42 42 0 0 0-31.2 13c-7.7 7-16.5 10.5-27 4.4 18.8-9.4 31.1-30.8 55.7-28.2 6.8.7 12-3.5 18.8-6" fill="#000000"/></g><g id="hair-variant62-ccf5ba29"><path d="M420.3 383c13.4-41.7 105.4-130.3 197-130.3 53.9 0 144.2 34 172 64.1 27.6 30.2 28 83.9 28 83.9s-11.7-15.1-34-34.5a237 237 0 0 0-138.5-54.4c-156.9-7-224.5 97.9-224.5 97.9z" fill="#ffffff"/><path fill-rule="evenodd" clip-rule="evenodd" d="M528.1 975.1c-48.3 3-94.2-4-140-15.3l-2.7-.7-2.7-.7c-27.7-6.8-55.6-13.7-84.2-16.5-22.3-2.2-43.3 3.8-64.3 9.8l-8 2.3a382 382 0 0 0-59.4 20.7c-4.3 2-11.3 4.2-16.6-.3-1-3.6.8-5.3 2.8-7l1.5-1.6.4-.4c6.9-7.4 13.2-14.3 5.5-26.1-5.7-8.8 2.6-29.3 13.2-35.8 31.1-19.3 63.7-34.3 101.7-32.2l1.3.2c2.8.2 6 .6 9.4-3.3l-6.7-.1c-14.8-.3-28.6-.6-42.3 2.2l-5.5 1.5q-2.2.8-4.3 1.3l-2.7.6c-9 2.4-18.2 4.7-25.4-4.7a32 32 0 0 1-3-36.2c11-19 10.7-38 5.6-57.8a97 97 0 0 1 7.9-72.9c5.7-10.6 14.6-18.9 25.4-19.2a507 507 0 0 0 27.4-2c22.3-1.9 44.5-3.8 66.7 1.3q7 2 14.5 5.8l8.2 3.7c-.6-6-9.6-10.7-22-17.2-42.2-22.2-123.5-65.1-45.9-247.9 12.7-29.7 39-58.7 59.8-81.7 13.6-15 24.8-27.4 28.3-35.7a300 300 0 0 1 23.6-46c28.8-44.6 63-83.5 110-109.2 22.9-12.4 48-18.5 74-22.6A213 213 0 0 1 685 142.7c29.2 10.4 54.3 29.7 76.7 51.4q8.3 8 18 16.1c36 31 81.2 70 94.3 198a443 443 0 0 1-3.3 103l-3.3 22.8c-6.2 42.6-14.8 101-5.8 135.3l.5 2.4c.6 3 1.2 5.9 3.7 8.1 15.3 14 18.4 32.9 20.2 52 1.3 14.5 3.7 28.7 8.7 42.4 7.8 21.4 5.8 40.5-12 56.8a72 72 0 0 0-16.9 24.8l30-25.4c18.7 16.7 13 33-2.2 55.5-16.1 23.7-42 34.9-67.5 45.8l-1 .4C784 950 740.4 960.4 697 970.8q-6.6 1.4-13.1 3.2c-18 4.3-37 3.5-56 2.6l-11.2-.4q-35-1-70-4.6a33 33 0 0 0-11.8 1.8q-3.2 1-6.8 1.7M549.4 328c-44.7 12.7-83.7 34.8-114.2 70.1-12.7 14.8-25.3 30.8-29.8 50.1-13.3 56.6-6 112.5 11.7 167 15.1 46.9 39 90.5 70.6 128.4a335 335 0 0 0 74 69q2.3 1.5 5 2.8c7 4 14.6 8.2 15 18.5.3 2.3 2.3 4 4.6 3.8 6.6-.3 13.3.2 20 .6 14.2 1 28.4 2 41.7-4.4 8.1-4 16.8-4.9 25.4-5.8a74 74 0 0 0 25.2-5.7c1.4-.7 4.2.7 5.9 1.7 6 4 11.3 2.2 16.5-1.4a170 170 0 0 0 40.6-37.7c28.7-37.4 43.6-80.1 55.1-125.7 6.3-24.8 7.2-49.8 8.2-74.8a462 462 0 0 1 4.4-56.7c3.1-19 0-39-3.1-59l-2.9-19.4c-2-15.9-4.1-32.5-13.8-46-40.4-56-98.2-79.7-164.7-85.5a250 250 0 0 0-95.4 10M425 394.2c10.8-36.2 64.5-86 124.1-109.1 111.3-39 235.5 3.9 255.6 95.6-52.6-55.4-118.8-75.6-192.7-72.3-73.5 3.3-137.2 30.1-187 85.8" fill="#000000"/></g><g id="mouth-variant01-ccf5ba29"><path d="M185.6 58.2c7.2 8.7 9.1 20 20.2 25 4.5 2 2.4 7.7-2.9 9.1a31 31 0 0 1-10.1.5c-22.4-1.6-44.7-3.4-67.2.5-7.7 1.3-16-.3-24-.7-4.3-.2-7.5-2.4-8-6.8s3.5-6.4 6.5-6.5c13.7-.4 21-10.2 28.8-19 6.8-8 15-9.4 24.8-9.5 11.1-.2 22.7-4 32 7.4m-15.5 60.3c-10 1.2-19.5 3.4-28-6.2 9.4-4.8 17.9-4.2 26-4.8 3-.2 6.9 1.9 7.6 5.7.5 2.9-2.3 4.1-5.6 5.3" fill="#000000"/></g><g id="nose-variant05-ccf5ba29"><path d="M68.7 105.5c6.5 23.1 15 44 30.2 62.1 6.2 7.4 3.6 18.1-3 24.6-13.8 13.4-29.3 24-50 15.6-5-2-9.2.5-13.7.9-9.5.8-16.6-1.5-16.6-14.3 13.2 2.4 25-7.3 38.9 1.2 6.2 3.9 17.9-.6 24.9-6 5.7-4.5 9.8-10.7 2.5-19.3-19-22.7-27-50.3-30-79.1a60 60 0 0 1 4.6-28.6C58.3 58 61.7 54 67.3 56c5.5 2 4.5 7.3 3 11-5.2 12.4-4 24.9-1.6 38.4" fill="#000000"/></g><g id="eyes-variant01-ccf5ba29"><path d="M224.4 58.4c-4.2-9.5-9.9-15.2-19.8-15.7-6-.3-7-5.1-8.9-9.8 2-1.5 3.5-3.7 5.3-3.8q31.8-2.6 63.5-.1c6 .4 9.3 8 3.2 10.4-10 4-12.5 13.2-18.5 19.8-8.2 9-15.2 9.1-24.8-.8m-191-29.6c12.2.7 23.1 1 34 2 3.6.3 8 1.8 8 6.7 0 5.6-4.6 5.2-8.3 5.1-6.3 0-9.7 2.7-12.5 8.6-3.4 7.4-6.9 15.3-18 14.8-10.5-.5-15.1-7.2-18.1-15.2-2.2-5.7-5-8.4-11-8.2-3.4.1-7.1-.2-7.5-4.9-.4-5 3-6 7-7.2a68 68 0 0 1 26.4-1.7" fill="#000000"/></g><g id="glasses-variant03-ccf5ba29"><path fill-rule="evenodd" clip-rule="evenodd" d="m325.8 13.2 154.4 1q7 .3 14 1.3c7.1.9 10.4 4.2 12 12a181 181 0 0 1-6.3 90.4c-5.4 17.7-20 28.1-37.5 33.6-23 7.1-46.5 12.4-69.8 3.9-20.8-7.6-37.2-20-42.9-44q-1.1-4.5-2.5-8.8c-2.5-8.3-5-16.5-3.2-25.7.7-4-3.1-5.9-6-7.4h-.1c-15-7.6-29.7-.2-32.4 16.5-3 18.3-9 35.8-19.4 50.8-16.5 23.9-41.6 29.4-69 26.1a97 97 0 0 1-56.2-26.6 58 58 0 0 1-20-48.8c.8-11.2-5.5-16.3-13.8-17.7a196 196 0 0 1-40.8-13.2q-7.1-3-14.2-5.6-10.8-4-21.8-7.3-12-3.6-24-8.1l-1-.4c-3.8-1.4-7-2.6-6.4-8.5 5.7-2.6 11-1 16.4.8 3.5 1.2 7.2 2.4 11.2 2.4-2.7-9-8.3-12.4-17.3-12.8A35 35 0 0 1 1.7 4C6.4-.7 10.7-.4 14.8.7c21.4 5.8 43.2 9.1 65 12.4 18 2.7 36 5.4 53.8 9.6 10.3 2.3 21.4 2.4 31-6.5 6.3-5.6 15.5-5.5 24-5.3h3.1l76.2 1.4 32.3.7zM150 78.9c3.3 41.7 26.7 63 62.7 71 23.6 5.2 52.3.1 66.8-26.8a204 204 0 0 0 17-47.6c4-15.2 14.3-20 35.7-18.3 14.3 1.2 20.9 7.9 22.8 22.5q2 16.6 5 32.8c2.5 13.7 19.5 30.3 33.3 33a117 117 0 0 0 64-4.6c12-4.3 22.9-10.4 28.7-23 10-22 13-45.3 12.7-69.2-.3-22-1.6-23.4-24.3-23.5h-42.2q-29.4 0-58.6-.2l-75-.8q-43.5-.7-87.1-1-5.3 0-10.7-.7c-10.8-1-21.7-2-30.3 5.1-9 7.4-17.8 7.4-27.4 7.4h-3.4q-3.8-.1-7.5-1c-4.2-.9-8.5-1.8-13.1-.1 1.3 14.8 4.6 27.7 21.9 31.2 6.3 1.2 9.7 4.8 9 13.8M74.2 25.5c8.9-1.2 17-2.2 20 10.5l4 11.4C85.2 44.8 75 39.8 70.1 26z" fill="#000000"/><path d="M286.6 43.7c-.7-6 3.1-7.4 7-7.4q28.6-.1 57.2.5c4.4 0 8.5 2 11.1 5.5-6.9 8.1-53.6 9.4-75.3 1.4" fill="#000000"/></g><g id="eyebrows-variant12-ccf5ba29"><path d="M80.4 35C59 29.6 51 33.2 39 52.6c-2.4 4-3.4 11.4-10.6 7-5.6-3.4-5.3-8.8-2.6-14.6a51 51 0 0 1 38-30.7 33 33 0 0 1 37.5 26.4c.9 5.3.1 10-4.8 13.6-11.2-1.3-8-14.2-16-19.1m164.7-2.4c14-6.2 27-12.4 41.2-1.9q7.8 5.7 11.3 14.7c2 5 2.3 10.7-2.7 13.8-5.7 3.5-8.1-2.1-11-5.6-10.4-12.8-18.4-13.7-32.4-4.6-4 2.6-6.8 8-13.5 7-5.7-9.6-.1-16.3 7-23.4" fill="#000000"/></g><clipPath id="clip-ccf5ba29"><rect width="1744" height="1744" rx="0" ry="0"/></clipPath></defs><g clip-path="url(#clip-ccf5ba29)"><rect width="1744" height="1744" fill="#f4c95d"/><use transform="translate(532 491)" href="#head-variant01-ccf5ba29"/><use transform="translate(151 1029.3)" href="#clothes-variant24-ccf5ba29"/><use transform="translate(266 221.9)" href="#hair-variant62-ccf5ba29"/><use transform="translate(791 872)" href="#mouth-variant01-ccf5ba29"/><use transform="translate(901 669)" href="#nose-variant05-ccf5ba29"/><use transform="translate(805.2 732.6)" href="#eyes-variant01-ccf5ba29"/><use transform="translate(610.3 681)" href="#glasses-variant03-ccf5ba29"/><use transform="translate(775 657)" href="#eyebrows-variant12-ccf5ba29"/></g></svg>