<svg xmlns="http://www.w3.org/2000/svg" viewBox="0 0 16 16" fill="none" shape-rendering="crispEdges" aria-hidden="true" width="256" height="256"><defs><g id="accessories-variant01-8890da99"><path fill="#ffd700" d="M12 0h2v2h-2zM0 0h2v2H0z"/></g><g id="clothes-variant18-8890da99"><path d="M2 1h2v1h1v1h2V2h1V1h2v3H2z" fill="#ae0001"/><path fill="white" fill-opacity=".3" d="M8 2h1v1H8zm1-1h1v1H9zM7 3h1v1H7z"/><path fill="white" fill-opacity=".5" d="M7 2h1v1H7zm1-1h1v1H8zM6 3h1v1H6z"/><path fill="white" fill-opacity=".3" d="M4 2H3v1h1zM3 1H2v1h1zm2 2H4v1h1z"/><path fill="white" fill-opacity=".5" d="M5 2H4v1h1zM4 1H3v1h1zm2 2H5v1h1z"/></g><g id="eyes-variant08-8890da99"><path fill="white" d="M0 0h3v2H0zm5 0h3v2H5z"/><path fill="#876658" d="M5 1h1v1H5zM0 1h1v1H0z"/></g><g id="mouth-happy01-8890da99"><path d="M1 0v2h2V0z" fill="#e35d6a"/></g><g id="hair-short20-8890da99"><path fill="#611c17" d="M6 2h4v1H6zm1 1h2v1H7z"/></g><clipPath id="clip-8890da99"><rect width="16" height="16" rx="0" ry="0"/></clipPath></defs><g clip-path="url(#clip-8890da99)"><rect width="16" height="16" fill="#c9b6e4"/><path d="M4 2h8v1h1v3h1v2h-1v3h-1v1H9v1h4v1h1v2H2v-2h1v-1h4v-1H4v-1H3V8H2V6h1V3h1z" fill="#eac393"/><path d="M4 2h8v1h1v3h1v2h-1v3h-1v1H4v-1H3V8H2V6h1V3h1z" fill="white" fill-opacity=".1"/><use transform="translate(1 7)" href="#accessories-variant01-8890da99"/><use transform="translate(2 12)" href="#clothes-variant18-8890da99"/><use transform="translate(4 5)" href="#eyes-variant08-8890da99"/><use transform="translate(6 9)" href="#mouth-happy01-8890da99"/><use href="#hair-short20-8890da99"/></g></svg>