<svg xmlns="http://www.w3.org/2000/svg" viewBox="0 0 980 980" fill="none" shape-rendering="auto" aria-hidden="true" width="256" height="256"><defs><g id="eyes-variant21-a047f6cd"><path d="M327 4q12 10 13 25 1 9-2 16c-3 5-10 5-13 0q-2-7-2-15-2-7-8-13-5-2-11 0c10 13 9 30 5 45q-3 9-10 16l-11 8q-8 3-14-2-7-7-7-18-2 8-6 13l-4-6q-1-10 2-21 6-20 21-35 10-11 25-16 12-3 22 3M123 9q29 12 41 41 5 10 4 22 0 4-3 4l-7-9q-7-13-16-25-12-15-30-19 9 15 9 34-2 16-12 30-8 10-20 10-9 0-16-5-13-11-14-28-2-12 1-22-2 5-6 8-7 6-13-1-4-5 0-12Q57 15 83 7q20-4 40 2" fill="#000000"/></g><g id="eyebrows-variant10-a047f6cd"><path d="M163 44q11 6 16 16 5 9 4 20-1 3-5 3-4-4-6-10l-14 3-26 3-39 3H58l-10-3q-4-5 2-8 14-3 29-4 11-2 20-7l26-9 20-5q9-3 18-2m107 2c11 1 19 7 30 9q11 0 20 5 4 2 2 6-3 2-8 2l-13 2-25 5q-12 3-24 2l-5 18-3 3-2-5q0-15 5-30l8-12q7-5 15-5" fill="#000000"/></g><g id="nose-variant06-a047f6cd"><path d="M54 97q0 13-10 23-5 5-14 6-9-1-19-5-6-2-11-6l5-4c9-1 17 3 25 4q6-1 9-6 7-8 15-12" fill="#000000"/></g><g id="mouth-happy01-a047f6cd"><path d="m216 17-6 8q-11 12-23 22-12 11-27 17-17 5-35 2-24-1-45-12l-12-7q-2-2 0-5 5-1 9 1 18 7 37 10 26 4 50-3 12-3 21-11l23-17z" fill="#000000"/></g><g id="glasses-variant01-a047f6cd"><path d="M72 15q28-18 62-14 20 3 37 15 4-4 10 0 18 13 29 34 14 26 9 55 15-9 31-4c-2-34 16-69 44-87q17-13 39-12 14 0 27 6c3 2 6 0 9 3q14 9 23 26 12 23 8 50c-4 29-20 57-45 72q-22 14-47 11-20-3-35-17-14-12-19-31-3-6-9-8-15-4-26 5l-5 7q-12 30-39 46a99 99 0 0 1-57 15c-31-2-60-19-76-45A92 92 0 0 1 72 15m97 4q-31-14-63-7c-27 7-50 26-60 52a81 81 0 0 0 24 90c20 18 49 25 75 18q30-7 48-32c16-23 19-54 8-79q-9-20-27-33l-5-5zm187-3q-12-5-26-3-23 3-41 19a88 88 0 0 0-25 77q4 22 19 36 13 11 30 13 21 0 38-12c26-18 41-51 36-82q-3-22-19-38-5-2-8-6z" fill="#000000"/></g><g id="head-variant04-a047f6cd"><path d="M299 0a231 231 0 0 1 219 204q2 15 0 30 0 5-4 8-4-15-5-29-3-35-16-68A220 220 0 0 0 271 8q-64 6-117 44l-18 13a221 221 0 0 0-78 164q2 34 16 64l17-1q5 3 2 7l-6 1q-24 2-42 18-14 13-17 31-3 24 9 44 14 24 40 34 20 8 43 4 6-1 11 1v3q-7 7-18 7-25 3-48-8a86 86 0 0 1-47-58q-5-29 10-53 12-18 34-26-10-21-12-43-3-27-1-53 3-20 9-38a227 227 0 0 1 99-122c41-28 92-43 142-41" fill="#000000"/><path d="M338 13a220 220 0 0 1 171 200q1 15 5 29l-2 17v22q-4 8-5 15l-1 23-1 65q0 32-10 61-6 19-19 34-14 18-33 32-17 14-37 24l-22 14-12 8 9-3q-4 19-4 37-1 13 7 22 10 12 25 20 26 16 55 25 11 10 14 25 2 14-5 26-8 15-22 25-20 13-43 22-44 15-92 19-63 5-124-8-26-5-49-17-17-7-28-21-9-9-12-22-2-16 6-30 32-20 49-54 7-17 7-34 2-24 0-47-2-31-8-61 16 18 36 32 26 16 56 26 30 11 63 17 12 4 25 4l8-2q2-1 2-4-9 1-17-2-45-10-87-26-29-10-53-27-26-20-47-47-5-9-12-16v-4q-5-2-11-1-23 4-43-4-26-10-40-34-12-20-9-44 3-18 17-31 18-16 42-18l6-1q3-4-2-7l-17 1q-14-30-16-64 1-21 5-41 7-31 22-59 19-36 51-64l18-13a230 230 0 0 1 184-39" fill="#ffffff"/><path d="M512 281q3 6 2 13l1 29q2 40 0 80c-3 31-14 63-36 86q-38 43-93 63l1 8 1 35q2 8 8 13l26 19 32 20 24 12 4 3-18-4q-29-9-55-25-15-8-25-20-8-9-7-22l4-37-9 3 12-8 22-14q20-11 37-24 19-14 33-32 13-15 19-34 10-29 10-61l1-65 1-23q1-7 5-15M82 343c5 5 4 14 0 19l-3 7 7 6 19 9q-1 6-7 5-10-1-19-6-10-4-12-16 2-8 6-14 2-7-2-12 6-3 11 2m49 93q7 7 12 16 20 27 47 47 24 16 53 27a714 714 0 0 0 104 28q0 3-2 4l-8 2q-13-1-25-4a478 478 0 0 1-119-43q-20-14-36-32 6 30 8 61 2 23 0 47 0 17-7 34-17 34-49 54-6 5-15 8l10-9q20-17 33-40 11-15 15-32 5-29 2-58l-2-59 2-10q-16-18-23-41" fill="#000000"/><use transform="translate(159 232)" href="#eyes-variant21-a047f6cd"/><use transform="translate(164 126)" href="#eyebrows-variant10-a047f6cd"/><use transform="translate(359 274)" href="#nose-variant06-a047f6cd"/><use transform="translate(223 402)" href="#mouth-happy01-a047f6cd"/><use transform="translate(152 197)" href="#glasses-variant01-a047f6cd"/></g><g id="hair-variant26-a047f6cd"><path d="M514 78q14 2 27 9l22 14 18 16q9 9 14 21 5 10 3 22 0 7-5 13-8 14-19 26 22 11 38 29 23 27 27 62 2 17-4 33c-2 7-10 8-15 5q-5-3-7-10l-6-11-24-46-6-15-25-1h-12l-7-5-12-9-4 12q-3 3-8 2l-13-3q-21-5-44-5-43-1-87 5l-24 4q-3 1-8-1-9-2-17-6l2 24-2 14q-12 20-22 42l-16 52q-1 5-4 5l-11 2q6 14 4 30 1 19-9 36 11 15 11 34 3 27-8 54-2 8-9 12-3 2-5-1l-3-16-15-7-28-9-10-5q-6-3-8-8-15-30-21-63a296 296 0 0 1 17-150q-21 2-41-5-13-8-20-22-8-11-9-24-2-10 0-21 2-21 12-39 5-13 12-24l10-16q11-12 27-21 19-14 42-23 21-10 43-6 14 2 27 9t23 16q11 12 8 28-2 11-7 22 18-5 35-2h19l51-1q0-15 4-28 4-15 16-25 38-28 83-25" fill="#000000"/><use transform="translate(131 168)" href="#head-variant04-a047f6cd"/><path d="M442 157a271 271 0 0 1 97 24l43 22 22 18 21 26q-13 3-27 2-25-3-51-4h-7l-7-5-12-9-4 11q-2 4-7 3l-11-3q-24-5-50-5a470 470 0 0 0-104 8q-5 3-11 0-10-2-18-6l2 27q1 6-2 11-12 20-22 42-9 25-16 52-1 5-4 5l-11 2q7 15 4 31 1 19-9 35 11 15 11 34 3 28-8 54-2 8-9 12-3 2-5-1l-2-13q-5-23-21-40-12-12-26-19l-15-9q-4-3-6-8c-13-31-16-67-13-100a285 285 0 0 1 37-113q15-24 35-43 14-14 32-23l13-5 33-11q9-3 18-2l43-1z" fill="#000000"/></g><clipPath id="clip-a047f6cd"><rect width="980" height="980" rx="0" ry="0"/></clipPath></defs><g clip-path="url(#clip-a047f6cd)"><rect width="980" height="980" fill="#f4c95d"/><use transform="translate(76 3)" href="#hair-variant26-a047f6cd"/></g></svg>