<svg xmlns="http://www.w3.org/2000/svg" viewBox="0 0 16 16" fill="none" shape-rendering="crispEdges" aria-hidden="true" width="256" height="256"><defs><g id="clothes-variant19-8c8414f2"><path d="M2 1h1v1h6V1h1v3H2z" fill="#ffc425"/><path fill="white" fill-opacity=".3" d="M7 3h2v1H7z"/></g><g id="eyes-variant11-8c8414f2"><path fill="white" d="M0 0h3v3H0zm5 0h3v3H5z"/><path fill="#647b90" d="M0 1h2v1H0zm5 0h2v1H5z"/><path fill="white" fill-opacity=".7" d="M0 1h1v1H0zm5 0h1v1H5z"/></g><g id="mouth-happy01-8c8414f2"><path d="M1 0v2h2V0z" fill="#d29985"/></g><g id="hair-long08-8c8414f2"><path d="M2 1h12v1h1v11h-1v-1h-1V8h1V6h-1V3h-1v1h-1V3H8v1H7v1H6v1H5v1H4v1H3v4H2v1H1V2h1z" fill="#612616"/></g><clipPath id="clip-8c8414f2"><rect width="16" height="16" rx="0" ry="0"/></clipPath></defs><g clip-path="url(#clip-8c8414f2)"><rect width="16" height="16" fill="#c9b6e4"/><path d="M4 2h8v1h1v3h1v2h-1v3h-1v1H9v1h4v1h1v2H2v-2h1v-1h4v-1H4v-1H3V8H2V6h1V3h1z" fill="#eac393"/><path d="M4 2h8v1h1v3h1v2h-1v3h-1v1H4v-1H3V8H2V6h1V3h1z" fill="white" fill-opacity=".1"/><use transform="translate(2 12)" href="#clothes-variant19-8c8414f2"/><use transform="translate(4 5)" href="#eyes-variant11-8c8414f2"/><use transform="translate(6 9)" href="#mouth-happy01-8c8414f2"/><use href="#hair-long08-8c8414f2"/></g></svg>