<svg xmlns="http://www.w3.org/2000/svg" viewBox="0 0 600 600" fill="none" shape-rendering="auto" aria-hidden="true" width="256" height="256"><defs><g id="eyebrows-variant07-3f2444b7"><path d="M118 28q27 2 46 18 5 3 8 8 2 4-3 5l-22-8q-12-4-24-5l-22 1q-22 6-43 16L37 73l-1-1q2-7 6-13 11-13 27-20 24-12 49-11m194 5q9 3 15 9 6 7 4 15-12-2-23-6-9-2-20-2-10-1-21 4l-13 9q-2 2-3-1-1-5 2-8 9-12 23-18 18-7 36-2" fill="#000000"/></g><g id="eyes-variant14-3f2444b7"><path d="M330 11q9 4 13 12 4 12 1 25-2 7-9 8-9-1-9-10c1-8 4-15 1-23q0-3-4-4-9 0-17 5l4 8v21q-2 12-10 19l-10 8q-8 1-13-5-4-8-3-17l-5 9-4 3v-9a95 95 0 0 1 44-49q11-4 21-1m-215 6q27 10 46 34 5 6 7 14 1 4-1 6-6 0-8-5l-6 18q-4 6-12 10t-18 1q-9-5-14-14-7-14-4-29 2-12 8-21-20-9-42-2-14 5-18 21c-2 4 0 11-4 14q-5 6-11 1-5-5-3-11 2-19 16-30 8-6 18-9 24-6 46 2" fill="#000000"/></g><g id="mouth-happy02-3f2444b7"><path d="M57 26q4 1 7 4l13 7q17 8 34 12 22 5 45 6l34 1 3 1c-17 10-40 11-60 10q-35-1-66-18-11-5-15-16 0-5 5-7" fill="#000000"/></g><g id="nose-variant03-3f2444b7"><path d="M52 101q0 4-4 9-7 9-18 12c-5 1-9-2-13 0H5q-3-3 0-7 5-6 12-7 6-2 10 2l1 7 11-8z" fill="#000000"/></g><clipPath id="clip-3f2444b7"><rect width="600" height="600" rx="0" ry="0"/></clipPath></defs><g clip-path="url(#clip-3f2444b7)"><rect width="600" height="600" fill="#b9dfc5"/><use transform="translate(115 124)" href="#eyebrows-variant07-3f2444b7"/><use transform="translate(109 229)" href="#eyes-variant14-3f2444b7"/><use transform="translate(173 400)" href="#mouth-happy02-3f2444b7"/><use transform="translate(309 271)" href="#nose-variant03-3f2444b7"/></g></svg>